<svg xmlns="http://www.w3.org/2000/svg" width="1920" height="162.412" viewBox="0 0 1920 162.412"><path d="M1920,954H0V791.588c.255.037,30.593,4.455,82.5,10.951,47.9,6,124.521,15.042,217.5,24.093,104.5,10.173,207.962,18.279,307.5,24.093,59.1,3.451,117.448,6.123,173.438,7.94,61.58,2,121.826,3.012,179.063,3.012s117.482-1.013,179.062-3.012c55.989-1.817,114.341-4.488,173.438-7.94,99.538-5.814,203-13.92,307.5-24.093,92.977-9.051,169.6-18.1,217.5-24.093,51.671-6.467,82.2-10.907,82.5-10.951Z" transform="translate(0 -791.588)" fill="#fff"/></svg>